<?xml version="1.0" encoding="UTF-8"?>
<svg xmlns="http://www.w3.org/2000/svg" version="1.1" viewBox="0 0 524 524">
  <defs>
    <style>
      .cls-1 {
        fill: #009af3;
      }
    </style>
  </defs>
  <!-- Generator: Adobe Illustrator 28.6.0, SVG Export Plug-In . SVG Version: 1.2.0 Build 709)  -->
  <g>
    <g id="Layer_1">
      <g>
        <path class="cls-1" d="M389.7,55.4c-36.8,67.2-22.7-127-97.3-10.7-80.6,125.6-72.7,63.4-62.9,31.6,9.8-31.8-21.3-42.5-50.4-19.6-27.5,21.7-69.3,84.1-89.2,111.2-4.6,6.2-.5,9.1,3.1,5.6,25.9-25.1,114.7-139.5,101.5-85.7-13.2,53.8,37.8,105.1,79,33.1,41.1-72,56.6-81.5,65-75.6,14.2,12.4,21,51,36.3,45.8,13.4-4.2,15.4-22.2,18.6-31.7,2.7-8-.6-9.5-3.7-3.9Z"/>
        <path class="cls-1" d="M432.7,239.6c-.9-.4-7.5-1.1-2.6,4,7.3,7.8,39,51.7-5.8,74.6-3.7,1.9-8.1-.7-8.3-4.8-1.7-48.3-18.5-88.2,38.5-104.3,49.2-13.9-15.7-43-25.3-46.6-1.5-.5-2.6,1-1.3,1.9,22,14.5,24.3,27.6-3.9,33.8-46.2,10.1-35.5,78.8-36.6,104.2-4.2,93.3-79.2,59.2-136,1.1-51.5-52.6-115.4-78.1-133.2-82.4-5.8-1.4-12.2,4.9-1.4,9.6,73.8,32.1,144.8,106.1,178.9,163.7,38.4,65,70.6,30.7,88.3,11.2,15.7-17.3,24.2-34.7,28.4-51.7,1.7-7,6.9-12.5,13.7-14.7,70.9-22.5,27.7-88.7,6.7-99.6Z"/>
        <path class="cls-1" d="M62.1,247.2c89,35,169.3,100.9,225.6,191.6,29.8,47.9-69,118.9-61.3,49.5,10.3-93.3-93-195.9-171.4-233.7-8.2-3.9-1.3-10.7,7.1-7.4Z"/>
      </g>
    </g>
  </g>
</svg>